<svg xmlns="http://www.w3.org/2000/svg" xmlns:xlink="http://www.w3.org/1999/xlink" viewBox="0 0 60 75" version="1.1" x="0px" y="0px">
   <title>028 - Poker </title>
   <desc>Created with Sketch.</desc>
   <g stroke="none" stroke-width="1" fill="none" fill-rule="evenodd">
      <g fill="#000000" fill-rule="nonzero">
         <path d="M31,14 C31,13.4477153 30.5522847,13 30,13 C20.6154999,13.010471 13.010471,20.6154999 13,30 C13,30.5522847 13.4477153,31 14,31 C14.5522847,31 15,30.5522847 15,30 C15.0093685,21.7196124 21.7196124,15.0093685 30,15 C30.5522847,15 31,14.5522847 31,14 Z"/>
         <path d="M46,29 C45.4477153,29 45,29.4477153 45,30 C44.9906315,38.2803876 38.2803876,44.9906315 30,45 C29.4477153,45 29,45.4477153 29,46 C29,46.5522847 29.4477153,47 30,47 C39.3845001,46.989529 46.989529,39.3845001 47,30 C47,29.4477153 46.5522847,29 46,29 Z"/>
         <path d="M59.229,23.253 L59.224,23.245 C58.4785045,20.023476 57.2027915,16.9482473 55.449,14.145 C55.443,14.133 55.449,14.119 55.438,14.107 C55.4140177,14.0716051 55.3872672,14.038167 55.358,14.007 C52.9692422,10.2317272 49.7732302,7.03298292 46,4.641 C45.9683979,4.61254631 45.9349954,4.58615832 45.9,4.562 C45.888,4.556 45.875,4.562 45.863,4.552 C43.0572416,2.79657795 39.9788335,1.52046981 36.754,0.776 L36.746,0.771 C36.7373403,0.771490247 36.7286597,0.771490247 36.72,0.771 C32.2985143,-0.253 27.7014857,-0.253 23.28,0.771 C23.2713403,0.771490247 23.2626597,0.771490247 23.254,0.771 L23.246,0.776 C20.0222073,1.52078525 16.944837,2.79688345 14.14,4.552 C14.128,4.557 14.115,4.552 14.103,4.562 C14.0680046,4.58615832 14.0346021,4.61254631 14.003,4.641 C10.2294341,7.03062488 7.03243114,10.2269448 4.642,14 C4.61318159,14.0315535 4.58645788,14.0649581 4.562,14.1 C4.555,14.112 4.562,14.126 4.551,14.138 C2.79720849,16.9412473 1.52149548,20.016476 0.776,23.238 L0.771,23.246 C0.771,23.256 0.771,23.265 0.771,23.274 C-0.253008848,27.6948093 -0.253008848,32.2911907 0.771,36.712 C0.771,36.721 0.771,36.73 0.771,36.74 L0.777,36.75 C1.52195458,39.9715358 2.79734363,43.0467983 4.551,45.85 C4.557,45.862 4.551,45.876 4.562,45.888 C4.60502839,45.9754895 4.6613645,46.0557769 4.729,46.126 C7.10778634,49.8439378 10.2723234,52.995504 14,55.359 C14.0316021,55.3874537 14.0650046,55.4138417 14.1,55.438 C14.116,55.446 14.133,55.449 14.149,55.456 C16.9506823,57.2070772 20.0238722,58.4804201 23.243,59.224 L23.251,59.229 C23.265,59.229 23.279,59.229 23.293,59.235 C27.7041351,60.2550145 32.2898649,60.2550145 36.701,59.235 C36.715,59.235 36.729,59.235 36.743,59.229 L36.751,59.224 C39.9701278,58.4804201 43.0433177,57.2070772 45.845,55.456 C45.861,55.449 45.878,55.446 45.894,55.438 C45.9289954,55.4138417 45.9623979,55.3874537 45.994,55.359 C49.7210838,52.9982094 52.8858966,49.8497804 55.266,46.135 C55.3336355,46.0647769 55.3899716,45.9844895 55.433,45.897 C55.44,45.885 55.433,45.871 55.444,45.859 C57.1976564,43.0557983 58.4730454,39.9805358 59.218,36.759 L59.224,36.749 C59.224,36.739 59.224,36.73 59.224,36.721 C60.2480088,32.3001907 60.2480088,27.7038093 59.224,23.283 C59.229,23.272 59.232,23.263 59.229,23.253 Z M54.154,44.137 L47.854,40.993 C49.026692,39.0974495 49.887951,37.026174 50.405,34.858 L57.084,37.087 C56.4362028,39.5605645 55.4502408,41.9329304 54.154,44.137 Z M37.086,57.089 L34.857,50.41 C37.0255474,49.8931344 39.0971807,49.031867 40.993,47.859 L44.138,54.159 C41.9332027,55.4552039 39.560182,56.4411583 37.086,57.089 Z M30,49 C19.5065898,49 11,40.4934102 11,30 C11,19.5065898 19.5065898,11 30,11 C40.4934102,11 49,19.5065898 49,30 C48.9884265,40.4886126 40.4886126,48.9884265 30,49 Z M15.862,54.154 L19.007,47.854 C20.9028193,49.026867 22.9744526,49.8881344 25.143,50.405 L22.914,57.084 C20.439818,56.4361583 18.0667973,55.4502039 15.862,54.154 Z M2.911,37.087 L9.59,34.858 C10.107049,37.026174 10.968308,39.0974495 12.141,40.993 L5.846,44.137 C4.54802052,41.9332003 3.56037126,39.5608231 2.911,37.087 Z M2,30 C2.00176356,28.2812821 2.16177228,26.5663769 2.478,24.877 L9.22,27.127 C9.08079595,28.0784803 9.00728868,29.0384183 9,30 C9.00728868,30.9615817 9.08079595,31.9215197 9.22,32.873 L2.478,35.123 C2.16177228,33.4336231 2.00176356,31.7187179 2,30 Z M5.846,15.863 L12.146,19.007 C10.9715592,20.9022356 10.1086057,22.9735265 9.59,25.142 L2.911,22.913 C3.56037126,20.4391769 4.54802052,18.0667997 5.846,15.863 Z M22.914,2.911 L25.143,9.59 C22.9744526,10.1068656 20.9028193,10.968133 19.007,12.141 L15.862,5.846 C18.0665276,4.54805748 20.4395595,3.56041585 22.914,2.911 Z M44.138,5.846 L40.993,12.146 C39.0974957,10.9713842 37.025847,10.1084223 34.857,9.59 L37.086,2.911 C39.5604405,3.56041585 41.9334724,4.54805748 44.138,5.846 Z M57.089,22.913 L50.41,25.142 C49.892951,22.973826 49.031692,20.9025505 47.859,19.007 L54.159,15.863 C55.4552408,18.0670696 56.4412028,20.4394355 57.089,22.913 Z M50.78,32.873 C50.9192041,31.9215197 50.9927113,30.9615817 51,30 C50.9927113,29.0384183 50.9192041,28.0784803 50.78,27.127 L57.522,24.877 C58.1593348,28.2626001 58.1593348,31.7373999 57.522,35.123 L50.78,32.873 Z M53.08,14.165 L46.721,17.342 C45.5587859,15.8107932 44.1932068,14.4452141 42.662,13.283 L45.839,6.924 C48.6725409,8.87635818 51.1252078,11.3303807 53.076,14.165 L53.08,14.165 Z M35.123,2.478 L32.873,9.22 C31.9215197,9.08079595 30.9615817,9.00728868 30,9 C29.0384183,9.00728868 28.0784803,9.08079595 27.127,9.22 L24.877,2.478 C28.2626001,1.84066517 31.7373999,1.84066517 35.123,2.478 Z M14.165,6.924 L17.342,13.283 C15.8107932,14.4452141 14.4452141,15.8107932 13.283,17.342 L6.924,14.165 C8.87597904,11.3300243 11.3300243,8.87597904 14.165,6.924 Z M6.924,45.835 L13.283,42.658 C14.4452141,44.1892068 15.8107932,45.5547859 17.342,46.717 L14.165,53.076 C11.3300243,51.124021 8.87597904,48.6699757 6.924,45.835 Z M24.877,57.522 L27.127,50.78 C28.0784803,50.9192041 29.0384183,50.9927113 30,51 C30.9615817,50.9927113 31.9215197,50.9192041 32.873,50.78 L35.123,57.522 C31.7373999,58.1593348 28.2626001,58.1593348 24.877,57.522 Z M45.835,53.076 L42.658,46.717 C44.1892068,45.5547859 45.5547859,44.1892068 46.717,42.658 L53.076,45.835 C51.124021,48.6699757 48.6699757,51.124021 45.835,53.076 Z"/>
         <path d="M29,6 L31,6 C31.5522847,6 32,5.55228475 32,5 C32,4.44771525 31.5522847,4 31,4 L29,4 C28.4477153,4 28,4.44771525 28,5 C28,5.55228475 28.4477153,6 29,6 Z"/>
         <path d="M11.615,14.029 C11.8803486,14.0297185 12.1349469,13.9242061 12.322,13.736 L13.736,12.322 C13.9959566,12.0709255 14.1002126,11.6991221 14.0086972,11.3494927 C13.9171817,10.9998632 13.6441368,10.7268183 13.2945073,10.6353028 C12.9448779,10.5437874 12.5730745,10.6480434 12.322,10.908 L10.908,12.322 C10.6220921,12.6079943 10.5365781,13.0380366 10.691322,13.4116546 C10.8460659,13.7852725 11.2106041,14.0289137 11.615,14.029 Z"/>
         <path d="M5,28 C4.44771525,28 4,28.4477153 4,29 L4,31 C4,31.5522847 4.44771525,32 5,32 C5.55228475,32 6,31.5522847 6,31 L6,29 C6,28.4477153 5.55228475,28 5,28 Z"/>
         <path d="M13.736,47.678 L12.322,46.264 C11.9296211,45.8850278 11.3059152,45.8904476 10.9201814,46.2761814 C10.5344476,46.6619152 10.5290278,47.2856211 10.908,47.678 L12.322,49.092 C12.7143789,49.4709722 13.3380848,49.4655524 13.7238186,49.0798186 C14.1095524,48.6940848 14.1149722,48.0703789 13.736,47.678 Z"/>
         <path d="M31,54 L29,54 C28.4477153,54 28,54.4477153 28,55 C28,55.5522847 28.4477153,56 29,56 L31,56 C31.5522847,56 32,55.5522847 32,55 C32,54.4477153 31.5522847,54 31,54 Z"/>
         <path d="M47.678,46.264 L46.264,47.678 C46.0040434,47.9290745 45.8997874,48.3008779 45.9913028,48.6505073 C46.0828183,49.0001368 46.3558632,49.2731817 46.7054927,49.3646972 C47.0551221,49.4562126 47.4269255,49.3519566 47.678,49.092 L49.092,47.678 C49.4709722,47.2856211 49.4655524,46.6619152 49.0798186,46.2761814 C48.6940848,45.8904476 48.0703789,45.8850278 47.678,46.264 Z"/>
         <path d="M55,28 C54.4477153,28 54,28.4477153 54,29 L54,31 C54,31.5522847 54.4477153,32 55,32 C55.5522847,32 56,31.5522847 56,31 L56,29 C56,28.4477153 55.5522847,28 55,28 Z"/>
         <path d="M46.264,12.322 L47.678,13.736 C48.0703789,14.1149722 48.6940848,14.1095524 49.0798186,13.7238186 C49.4655524,13.3380848 49.4709722,12.7143789 49.092,12.322 L47.678,10.908 C47.2856211,10.5290278 46.6619152,10.5344476 46.2761814,10.9201814 C45.8904476,11.3059152 45.8850278,11.9296211 46.264,12.322 Z"/>
         <path d="M35.444,40 C35.444,39.4477153 34.9962847,39 34.444,39 C33.744,39 33,38.828 33,36.778 L33,35.406 C34.7997002,35.8469776 36.7020842,35.4219651 38.143,34.257 C40.378,32.327 40.463,28.584 38.368,24.968 C36.78,22.035 32.755,19.426 30.497,18.132 C30.1891273,17.9556674 29.8108727,17.9556674 29.503,18.132 C27.245,19.426 23.22,22.032 21.646,24.943 C19.537,28.584 19.622,32.327 21.858,34.258 C23.2991256,35.4217298 25.2007623,35.8462881 27,35.406 L27,36.778 C27,38.828 26.255,39 25.556,39 C25.0037153,39 24.556,39.4477153 24.556,40 C24.556,40.5522847 25.0037153,41 25.556,41 L34.444,41 C34.9962847,41 35.444,40.5522847 35.444,40 Z M31.455,33.2 C31.1713436,33.3843822 31.0001475,33.6996839 31,34.038 L31,36.783 C30.9809502,37.5381363 31.1037407,38.2901438 31.362,39 L28.638,39 C28.8968779,38.2885716 29.019678,37.5348097 29,36.778 L29,34.033 C28.9998929,33.6947698 28.8288207,33.3795155 28.5453029,33.1950776 C28.2617851,33.0106396 27.9042496,32.9820167 27.595,33.119 C26.1651241,33.8385035 24.4521946,33.6931499 23.164,32.743 C21.679,31.46 21.764,28.729 23.39,25.92 C24.331,24.183 26.726,22.099 30,20.157 C33.274,22.099 35.67,24.184 36.624,25.945 C38.236,28.729 38.324,31.46 36.837,32.745 C35.5482667,33.6945286 33.8355968,33.8402138 32.405,33.122 C32.095515,32.9856962 31.7381077,33.0150412 31.455,33.2 Z"/>
      </g>
   </g>
</svg>